<?xml version="1.0" standalone="no"?>
<!DOCTYPE svg PUBLIC "-//W3C//DTD SVG 20010904//EN"
 "http://www.w3.org/TR/2001/REC-SVG-20010904/DTD/svg10.dtd">
<svg version="1.0" xmlns="http://www.w3.org/2000/svg"
 width="720.000000pt" height="720.000000pt" viewBox="0 0 720.000000 720.000000"
 preserveAspectRatio="xMidYMid meet">
<metadata>
Created by potrace 1.11, written by Peter Selinger 2001-2013
</metadata>
<g transform="translate(0.000000,720.000000) scale(0.100000,-0.100000)"
fill="#000000" stroke="none">
<path d="M551 6263 c-30 -112 -31 -212 -31 -2413 0 -1500 -4 -2308 -11 -2435
-15 -266 -15 -660 0 -775 13 -101 39 -227 50 -247 10 -19 149 54 256 134 53
40 175 155 295 277 492 504 2248 2249 2280 2266 59 30 100 34 156 12 107 -40
192 -115 381 -331 76 -87 610 -630 1207 -1227 1124 -1125 1134 -1134 1220
-1134 54 0 99 47 115 118 8 39 11 647 11 2230 0 1768 3 2232 15 2467 17 346
19 527 5 701 -10 121 -43 313 -58 340 -5 9 -19 7 -57 -9 -159 -69 -258 -151
-576 -478 -141 -145 -681 -690 -1200 -1210 -711 -713 -958 -954 -999 -978 -66
-37 -132 -41 -197 -12 -64 29 -320 280 -1333 1302 -1270 1283 -1267 1279
-1340 1331 -36 25 -91 60 -122 77 l-57 32 -10 -38z m269 -399 c50 -38 567
-548 1245 -1227 898 -900 1166 -1174 1189 -1215 24 -46 28 -62 24 -113 -3 -47
-12 -69 -43 -116 -51 -76 -2301 -2328 -2415 -2417 -46 -36 -88 -66 -92 -66 -5
0 -8 1175 -8 2610 0 1436 3 2610 8 2610 4 0 46 -30 92 -66z m5445 -5 c14 -65
16 -303 15 -2627 0 -1406 -3 -2558 -5 -2560 -20 -20 -273 225 -1346 1297
-1261 1261 -1239 1238 -1239 1331 0 93 -25 67 1294 1388 682 683 1245 1242
1252 1242 7 0 19 -31 29 -71z"/>
</g>
</svg>
