<?xml version="1.0" standalone="no"?>
<!DOCTYPE svg PUBLIC "-//W3C//DTD SVG 20010904//EN"
 "http://www.w3.org/TR/2001/REC-SVG-20010904/DTD/svg10.dtd">
<svg version="1.0" xmlns="http://www.w3.org/2000/svg"
 width="180.000000pt" height="180.000000pt" viewBox="0 0 180.000000 180.000000"
 preserveAspectRatio="xMidYMid meet">
<metadata>
Created by potrace 1.11, written by Peter Selinger 2001-2013
</metadata>
<g transform="translate(0.000000,180.000000) scale(0.100000,-0.100000)"
fill="#000000" stroke="none">
<path d="M136 1562 c-8 -13 -11 -1447 -2 -1460 16 -26 80 29 396 344 180 178
330 324 335 324 24 -1 71 -45 362 -340 172 -174 323 -322 338 -330 55 -29 53
-50 57 725 1 391 -1 715 -5 722 -4 6 -17 9 -30 6 -12 -3 -173 -156 -358 -339
-203 -203 -343 -334 -354 -334 -12 0 -151 131 -355 334 -318 317 -373 366
-384 348z m365 -397 c167 -168 307 -312 312 -321 5 -9 5 -24 1 -35 -10 -22
-614 -629 -626 -629 -4 0 -8 290 -8 645 0 355 4 645 9 645 4 0 145 -137 312
-305z m1069 -351 c0 -354 -3 -644 -6 -644 -19 0 -644 632 -644 650 0 18 631
651 642 644 4 -3 8 -295 8 -650z"/>
</g>
</svg>
