<?xml version="1.0" standalone="yes"?>
<svg xmlns="http://www.w3.org/2000/svg" width="180" height="165">
<path style="fill:#ffffff; stroke:none;" d="M0 0L0 165L180 165L180 0L0 0z"/>
<path style="fill:#000000; stroke:none;" d="M14 15C12.3931 20.4364 13 26.3598 13 32L13 61L13 129C13 139.662 10.9725 152.758 14 163C21.7081 160.014 27.2695 152.73 33 147L67 113C71.3327 108.667 75.6374 104.304 80 100.002C81.7921 98.2341 84.2031 95.0556 87 95.0556C92.0169 95.0556 98.7133 104.713 102 108L142 148C145.66 151.66 149.248 155.414 153 158.98C154.528 160.432 156.53 162.793 158.852 162.793C162.399 162.793 161.983 157.293 161.999 155C162.059 146.334 162 137.666 162 129L162 53C162 41.4593 164.275 27.0804 161 16C153.276 18.6259 147.638 26.3621 142 32L107 67C103.001 70.9987 99.0373 75.0357 95 78.9954C93.1255 80.8339 90.8038 83.7479 88 84.0787C85.1634 84.4134 82.838 81.7354 81 79.9807C76.574 75.7554 72.3268 71.3268 68 67L33 32C27.2316 26.2316 21.4613 18.4795 14 15z"/>
<path style="fill:#ffffff; stroke:none;" d="M18 24L18 155C24.6923 150.286 30.2203 143.78 36 138L67 107C70.9778 103.022 75.1631 99.1692 78.9406 95C80.4232 93.3637 82.3641 91.4186 82.0787 89C81.7947 86.5929 79.547 84.6407 77.9807 83C74.0806 78.9147 69.9938 74.9938 66 71L36 41C30.2204 35.2204 24.6923 28.7141 18 24M156 24L108 72C104.007 75.9929 99.909 79.9057 96.0201 84C94.4981 85.6023 92.2068 87.5779 92.2068 90C92.2068 92.4221 94.4981 94.3977 96.0201 96C99.909 100.094 104.007 104.007 108 108L139 139C144.78 144.78 150.308 151.286 157 156L157 64L157 38C157 33.4645 157.769 28.2152 156 24z"/>
</svg>
